<?xml version="1.0" standalone="no"?>
<!DOCTYPE svg PUBLIC "-//W3C//DTD SVG 1.1//EN" "https://www.w3.org/Graphics/SVG/1.1/DTD/svg11.dtd">

<svg width="800" height="600" version="1.1" xmlns="http://www.w3.org/2000/svg">
	<ellipse stroke="black" stroke-width="1" fill="none" cx="132.5" cy="81.5" rx="30" ry="30"/>
	<text x="13.5" y="87.5" font-family="Times New Roman" font-size="20">Wereld overgenomen door AI</text>
	<ellipse stroke="black" stroke-width="1" fill="none" cx="280.5" cy="247.5" rx="30" ry="30"/>
	<text x="244.5" y="253.5" font-family="Times New Roman" font-size="20">Ingelogd</text>
	<ellipse stroke="black" stroke-width="1" fill="none" cx="359.5" cy="51.5" rx="30" ry="30"/>
	<text x="258.5" y="57.5" font-family="Times New Roman" font-size="20">In AI-besturingsinterface</text>
	<ellipse stroke="black" stroke-width="1" fill="none" cx="735.5" cy="81.5" rx="30" ry="30"/>
	<text x="670.5" y="87.5" font-family="Times New Roman" font-size="20">AI gaat akkoord</text>
	<ellipse stroke="black" stroke-width="1" fill="none" cx="735.5" cy="394.5" rx="30" ry="30"/>
	<text x="674.5" y="400.5" font-family="Times New Roman" font-size="20">Tussentoestand</text>
	<ellipse stroke="black" stroke-width="1" fill="none" cx="536.5" cy="554.5" rx="30" ry="30"/>
	<text x="475.5" y="560.5" font-family="Times New Roman" font-size="20">Tussentoestand</text>
	<ellipse stroke="black" stroke-width="1" fill="none" cx="112.5" cy="527.5" rx="30" ry="30"/>
	<text x="70.5" y="533.5" font-family="Times New Roman" font-size="20">AI gestopt</text>
	<polygon stroke="black" stroke-width="1" points="152.464,103.892 260.536,225.108"/>
	<polygon fill="black" stroke-width="1" points="260.536,225.108 258.944,215.809 251.48,222.464"/>
	<text x="92.5" y="185.5" font-family="Times New Roman" font-size="20">E-mail gelekt</text>
	<polygon stroke="black" stroke-width="1" points="58.5,28.5 108.11,64.032"/>
	<polygon fill="black" stroke-width="1" points="108.11,64.032 104.518,55.309 98.695,63.438"/>
	<polygon stroke="black" stroke-width="1" points="291.715,219.675 348.285,79.325"/>
	<polygon fill="black" stroke-width="1" points="348.285,79.325 340.657,84.876 349.932,88.614"/>
	<text x="327.5" y="164.5" font-family="Times New Roman" font-size="20">Afbeeldingspuzzel met code</text>
	<polygon stroke="black" stroke-width="1" points="389.405,53.886 705.595,79.114"/>
	<polygon fill="black" stroke-width="1" points="705.595,79.114 698.018,73.494 697.223,83.462"/>
	<text x="422.5" y="95.5" font-family="Times New Roman" font-size="20">Haal AI over om te stoppen</text>
	<polygon stroke="black" stroke-width="1" points="735.5,111.5 735.5,364.5"/>
	<polygon fill="black" stroke-width="1" points="735.5,364.5 740.5,356.5 730.5,356.5"/>
	<text x="525.5" y="244.5" font-family="Times New Roman" font-size="20">Booleaanse logica-puzzel</text>
	<polygon stroke="black" stroke-width="1" points="712.12,413.298 559.88,535.702"/>
	<polygon fill="black" stroke-width="1" points="559.88,535.702 569.248,534.586 562.982,526.792"/>
	<text x="452.5" y="465.5" font-family="Times New Roman" font-size="20">Binaire code 'vertalen'</text>
	<polygon stroke="black" stroke-width="1" points="506.561,552.593 142.439,529.407"/>
	<polygon fill="black" stroke-width="1" points="142.439,529.407 150.105,534.905 150.741,524.925"/>
	<text x="210.5" y="524.5" font-family="Times New Roman" font-size="20">Hexadecimaal -&gt; RGB -&gt; tekst</text>
</svg>
